# xmcd CD database file
#
# Track frame offsets:
#	150
#	29653
#	48460
#	88776
#	117727
#	142023
#	166984
#	191021
#	211249
#	239590
#	263280
#
# Disc length: 3856 seconds
#
# Revision: 0
# Processed by: cddbd v1.5.2PL0 Copyright (c) Steve Scherf et al.
# Submitted via: CDex 1.70beta2
#
DISCID=a20f0e0b
DTITLE=Joe Jewell Quartet - Every Note Counts
DYEAR=2006
DGENRE=Jazz
TTITLE0=Something Special
TTITLE1=Sunny
TTITLE2=La Catedral (Prelude) - Estate
TTITLE3=A Child is Born
TTITLE4=Alone Together
TTITLE5=Back At The Chicken Shack
TTITLE6=Beatrice
TTITLE7=I've Grown Accustomed To Your Face
TTITLE8=While We're Young
TTITLE9=Dream Dancing
TTITLE10=In Walked Bud
EXTD=YEAR: 2006
EXTT0=
EXTT1=
EXTT2=
EXTT3=
EXTT4=
EXTT5=
EXTT6=
EXTT7=
EXTT8=
EXTT9=
EXTT10=
PLAYORDER=
